# xmcd
#
# Track frame offsets: 
#        150
#        31185
#        50595
#        65947
#        107417
#        131880
#        147600
#        197682
#        216422
#        226230
#        257617
#        307715
#        326845
#
# Disc length: 4636 seconds
#
# Revision: 10
# Processed by: cddbd v1.5.2PL0 Copyright (c) Steve Scherf et al.
# Submitted via: ExactAudioCopyFreeDBPlugin 1.0
#
DISCID=c5121a0d
DTITLE=Mike Bloomfield,Al Kooper,Steve Stills - Super Session
DYEAR=1968
DGENRE=Blues
TTITLE0=Albert's Shuffle
TTITLE1=Stop
TTITLE2=Man's Temptation
TTITLE3=His Holy Modal Majesty
TTITLE4=Really
TTITLE5=It Takes a Lot to Laugh, It Takes a Train to Cry
TTITLE6=Season of the Witch
TTITLE7=You Don't Love Me
TTITLE8=Harvey's Tune
TTITLE9=Albert's Shuffle
TTITLE10=Season of the Witch
TTITLE11=Blues for Nothing
TTITLE12=Fat Grey Cloud
EXTD=
EXTT0=
EXTT1=
EXTT2=
EXTT3=
EXTT4=
EXTT5=
EXTT6=
EXTT7=
EXTT8=
EXTT9=
EXTT10=
EXTT11=
EXTT12=
PLAYORDER=
